<svg width="956" height="1492" viewBox="0 0 956 1492" fill="none" xmlns="http://www.w3.org/2000/svg">
<path d="M954 1016V1017.5H955.5V1016H954ZM0.5 0V10.2143H3.5V0H0.5ZM0.5 30.6429V51.0714H3.5V30.6429H0.5ZM0.5 71.5V91.9286H3.5V71.5H0.5ZM0.5 112.357V132.786H3.5V112.357H0.5ZM0.5 153.214V173.643H3.5V153.214H0.5ZM0.5 194.071V214.5H3.5V194.071H0.5ZM0.5 234.929V255.357H3.5V234.929H0.5ZM0.5 275.786V286H3.5V275.786H0.5ZM0.5 286C0.5 289.332 0.607559 292.638 0.819418 295.917L3.81317 295.723C3.60547 292.509 3.5 289.267 3.5 286H0.5ZM3.38362 315.565C4.67836 322.11 6.39463 328.503 8.50297 334.716L11.3438 333.751C9.27758 327.663 7.59554 321.398 6.32659 314.983L3.38362 315.565ZM16.0941 353.022C19.0337 358.972 22.3525 364.701 26.0187 370.177L28.5116 368.508C24.9179 363.14 21.6649 357.525 18.7837 351.693L16.0941 353.022ZM38.0947 385.892C42.4564 390.862 47.1382 395.544 52.1079 399.905L54.0869 397.651C49.215 393.375 44.6253 388.785 40.3494 383.913L38.0947 385.892ZM67.8232 411.981C73.2994 415.647 79.0281 418.966 84.9778 421.906L86.3067 419.216C80.4753 416.335 74.8601 413.082 69.4921 409.488L67.8232 411.981ZM103.284 429.497C109.497 431.605 115.89 433.322 122.435 434.616L123.017 431.673C116.602 430.404 110.337 428.722 104.248 426.656L103.284 429.497ZM142.083 437.181C145.362 437.392 148.668 437.5 152 437.5V434.5C148.733 434.5 145.491 434.395 142.277 434.187L142.083 437.181ZM152 437.5H162.188V434.5H152V437.5ZM182.562 437.5H202.938V434.5H182.562V437.5ZM223.312 437.5H243.688V434.5H223.312V437.5ZM264.062 437.5H284.438V434.5H264.062V437.5ZM304.812 437.5H325.188V434.5H304.812V437.5ZM345.562 437.5H365.938V434.5H345.562V437.5ZM386.313 437.5H406.688V434.5H386.313V437.5ZM427.063 437.5H447.438V434.5H427.063V437.5ZM467.813 437.5H488.188V434.5H467.813V437.5ZM508.563 437.5H528.938V434.5H508.563V437.5ZM549.312 437.5H569.688V434.5H549.312V437.5ZM590.063 437.5H610.438V434.5H590.063V437.5ZM630.813 437.5H651.188V434.5H630.813V437.5ZM671.563 437.5H691.938V434.5H671.563V437.5ZM712.313 437.5H732.688V434.5H712.313V437.5ZM753.063 437.5H773.438V434.5H753.063V437.5ZM793.813 437.5H804V434.5H793.813V437.5ZM804 437.5C807.267 437.5 810.509 437.605 813.723 437.813L813.917 434.819C810.638 434.608 807.332 434.5 804 434.5V437.5ZM832.983 440.327C839.398 441.596 845.663 443.278 851.752 445.344L852.716 442.503C846.503 440.395 840.11 438.678 833.565 437.384L832.983 440.327ZM869.693 452.784C875.525 455.665 881.14 458.918 886.508 462.512L888.177 460.019C882.701 456.353 876.972 453.034 871.022 450.094L869.693 452.784ZM901.913 474.349C906.785 478.625 911.375 483.215 915.651 488.087L917.905 486.108C913.544 481.138 908.862 476.456 903.892 472.095L901.913 474.349ZM927.488 503.492C931.082 508.86 934.335 514.475 937.216 520.307L939.906 518.978C936.966 513.028 933.648 507.299 929.981 501.823L927.488 503.492ZM944.656 538.248C946.722 544.337 948.405 550.602 949.673 557.017L952.616 556.435C951.322 549.89 949.605 543.497 947.497 537.284L944.656 538.248ZM952.187 576.277C952.395 579.491 952.5 582.733 952.5 586H955.5C955.5 582.668 955.393 579.362 955.181 576.083L952.187 576.277ZM952.5 586V595.773H955.5V586H952.5ZM952.5 615.318V634.864H955.5V615.318H952.5ZM952.5 654.409V673.955H955.5V654.409H952.5ZM952.5 693.5V713.045H955.5V693.5H952.5ZM952.5 732.591V752.136H955.5V732.591H952.5ZM952.5 771.682V791.227H955.5V771.682H952.5ZM952.5 810.773V830.318H955.5V810.773H952.5ZM952.5 849.864V869.409H955.5V849.864H952.5ZM952.5 888.955V908.5H955.5V888.955H952.5ZM952.5 928.045V947.591H955.5V928.045H952.5ZM952.5 967.136V986.682H955.5V967.136H952.5ZM952.5 1006.23V1016H955.5V1006.23H952.5ZM954 1014.5H943.975V1017.5H954V1014.5ZM923.925 1014.5H903.875V1017.5H923.925V1014.5ZM883.825 1014.5H863.775V1017.5H883.825V1014.5ZM843.725 1014.5H823.675V1017.5H843.725V1014.5ZM803.625 1014.5H783.575V1017.5H803.625V1014.5ZM763.525 1014.5H743.475V1017.5H763.525V1014.5ZM723.425 1014.5H703.375V1017.5H723.425V1014.5ZM683.325 1014.5H663.275V1017.5H683.325V1014.5ZM643.225 1014.5H623.175V1017.5H643.225V1014.5ZM603.125 1014.5H583.075V1017.5H603.125V1014.5ZM563.025 1014.5H542.975V1017.5H563.025V1014.5ZM522.925 1014.5H502.875V1017.5H522.925V1014.5ZM482.825 1014.5H462.775V1017.5H482.825V1014.5ZM442.725 1014.5H422.675V1017.5H442.725V1014.5ZM402.625 1014.5H382.575V1017.5H402.625V1014.5ZM362.525 1014.5H342.475V1017.5H362.525V1014.5ZM322.425 1014.5H302.375V1017.5H322.425V1014.5ZM282.325 1014.5H262.275V1017.5H282.325V1014.5ZM242.225 1014.5H222.175V1017.5H242.225V1014.5ZM202.125 1014.5H182.075V1017.5H202.125V1014.5ZM162.025 1014.5H152V1017.5H162.025V1014.5ZM152 1014.5C148.668 1014.5 145.362 1014.61 142.083 1014.82L142.277 1017.81C145.491 1017.61 148.733 1017.5 152 1017.5V1014.5ZM122.435 1017.38C115.89 1018.68 109.497 1020.39 103.284 1022.5L104.249 1025.34C110.337 1023.28 116.602 1021.6 123.017 1020.33L122.435 1017.38ZM84.9779 1030.09C79.0281 1033.03 73.2994 1036.35 67.8232 1040.02L69.4921 1042.51C74.8601 1038.92 80.4753 1035.66 86.3068 1032.78L84.9779 1030.09ZM52.108 1052.09C47.1383 1056.46 42.4564 1061.14 38.0947 1066.11L40.3494 1068.09C44.6253 1063.21 49.215 1058.63 54.0869 1054.35L52.108 1052.09ZM26.0188 1081.82C22.3525 1087.3 19.0338 1093.03 16.0941 1098.98L18.7837 1100.31C21.6649 1094.48 24.9179 1088.86 28.5117 1083.49L26.0188 1081.82ZM8.50297 1117.28C6.39463 1123.5 4.67836 1129.89 3.38362 1136.43L6.32659 1137.02C7.59554 1130.6 9.27758 1124.34 11.3438 1118.25L8.50297 1117.28ZM0.819417 1156.08C0.607558 1159.36 0.5 1162.67 0.5 1166H3.5C3.5 1162.73 3.60547 1159.49 3.81317 1156.28L0.819417 1156.08ZM0.5 1166V1176.19H3.5V1166H0.5ZM0.5 1196.56V1216.94H3.5V1196.56H0.5ZM0.5 1237.31V1257.69H3.5V1237.31H0.5ZM0.5 1278.06V1298.44H3.5V1278.06H0.5ZM0.5 1318.81V1339.19H3.5V1318.81H0.5ZM0.5 1359.56V1379.94H3.5V1359.56H0.5ZM0.5 1400.31V1420.69H3.5V1400.31H0.5ZM0.5 1441.06V1461.44H3.5V1441.06H0.5ZM0.5 1481.81V1492H3.5V1481.81H0.5Z" fill="#C5C5C5"/>
</svg>
