<svg width="556" height="994" viewBox="0 0 556 994" fill="none" xmlns="http://www.w3.org/2000/svg">
<path d="M0 10H556V716C556 869.535 431.535 994 278 994C124.465 994 0 869.535 0 716V10Z" fill="#ABD2FA"/>
<path d="M556 0H0V752.201H356C466.457 752.201 556 662.658 556 552.201V0Z" fill="#DEEFB7"/>
<path d="M0 0H556V528.707H200C89.5431 528.707 0 439.163 0 328.707V0Z" fill="#548AFF"/>
<path d="M0 0H276.089V354.44H200C89.5431 354.44 0 264.897 0 154.44V0Z" fill="#124BC6"/>
<path d="M0 0H276.089V158.514H158.514C70.9689 158.514 0 87.5446 0 0Z" fill="#98DFAF"/>
<path d="M556 0H276.089V354.44H356C466.457 354.44 556 264.897 556 154.44V0Z" fill="#5FB49C"/>
</svg>
