<svg width="344" height="564" viewBox="0 0 344 564" fill="none" xmlns="http://www.w3.org/2000/svg">
<path fill-rule="evenodd" clip-rule="evenodd" d="M265.222 229.055C299.092 293.524 359.89 358.92 339.482 428.826C319.117 498.584 238.817 534.709 169.562 556.725C110.683 575.442 50.565 549.583 -10.4822 540.08C-64.0786 531.736 -123.329 539.075 -165.212 504.608C-207.03 470.196 -219.779 413.038 -229.583 359.776C-238.737 310.049 -238.132 258.996 -219.043 212.175C-200.186 165.925 -161.471 134.169 -124.092 101.04C-79.2396 61.2871 -40.2392 1.09678 19.6925 0.583085C79.8482 0.0674751 121.932 57.5732 165.973 98.554C206.986 136.717 239.168 179.46 265.222 229.055Z" fill="#E9F2E9"/>
</svg>
