<svg width="17" height="12" viewBox="0 0 17 12" fill="none" xmlns="http://www.w3.org/2000/svg">
<path d="M8.50001 3.49996C7.13167 3.49996 6.00001 4.63246 6.00001 5.99996C6.00001 7.36829 7.13167 8.49996 8.50001 8.49996C9.86751 8.49996 11 7.36829 11 5.99996C11 4.63246 9.86751 3.49996 8.50001 3.49996Z" fill="#5FB49C"/>
<path d="M8.5 0.166626C2.17334 0.166626 0.271937 5.68079 0.254531 5.73663L0.166672 5.99996L0.253702 6.26329C0.271937 6.31913 2.17334 11.8333 8.5 11.8333C14.8267 11.8333 16.7281 6.31913 16.7455 6.26329L16.8333 5.99996L16.7463 5.73663C16.7281 5.68079 14.8267 0.166626 8.5 0.166626ZM8.5 10.1666C4.06479 10.1666 2.34657 6.96163 1.93048 5.99996C2.34822 5.03496 4.06728 1.83329 8.5 1.83329C12.9352 1.83329 14.6534 5.03829 15.0695 5.99996C14.6518 6.96496 12.9327 10.1666 8.5 10.1666Z" fill="#5FB49C"/>
</svg>
